/* XPM */
static char *appicon_xpm[] = {
/* columns rows colors chars-per-pixel */
"64 64 139 2",
"   c #020202",
".  c #030303",
"X  c #040404",
"o  c #070808",
"O  c #0A0B0B",
"+  c #0B0C0C",
"@  c #0C0D0D",
"#  c #0F0F10",
"$  c #101011",
"%  c #141415",
"&  c #141516",
"*  c #161718",
"=  c #18191A",
"-  c #191A1B",
";  c #1A1B1C",
":  c #1B1C1D",
">  c #1C1D1E",
",  c #1E1F20",
"<  c #1F2021",
"1  c #202122",
"2  c #212324",
"3  c #222425",
"4  c #242627",
"5  c #252728",
"6  c #27292A",
"7  c #2B2C2E",
"8  c #2C2D2F",
"9  c #2E2F31",
"0  c #2F3133",
"q  c #303234",
"w  c #323436",
"e  c #343638",
"r  c #36383A",
"t  c #393B3D",
"y  c #3A3C3E",
"u  c #3B3E40",
"i  c #3C3F41",
"p  c #3D4042",
"a  c #3E4143",
"s  c #404345",
"d  c #414446",
"f  c #434548",
"g  c #444649",
"h  c #46484B",
"j  c #47494C",
"k  c #484A4D",
"l  c #484B4E",
"z  c #4B4E51",
"x  c #4C4F52",
"c  c #4D5053",
"v  c #4F5255",
"b  c #505356",
"n  c #515457",
"m  c #535659",
"M  c #54575A",
"N  c #55585B",
"B  c #575B5E",
"V  c #585C5F",
"C  c #5B5F62",
"Z  c #5C6063",
"A  c #5D6064",
"S  c #606367",
"D  c #626569",
"F  c #666A6E",
"G  c #6B6F73",
"H  c #6C7074",
"J  c #6D7175",
"K  c #707579",
"L  c #73787C",
"P  c #767B7F",
"I  c #7A7E83",
"U  c #7B7F84",
"Y  c #7C8085",
"T  c #7E8388",
"R  c #7F8489",
"E  c #80858A",
"W  c #82878C",
"Q  c #83888D",
"!  c #858A8F",
"~  c #868B90",
"^  c #878C91",
"/  c #888D92",
"(  c #898E93",
")  c #8A9095",
"_  c #8C9297",
"`  c #8E9499",
"'  c #90969B",
"]  c #91969C",
"[  c #93989E",
"{  c #94999F",
"}  c #959AA0",
"|  c #979CA2",
" . c #989EA4",
".. c #9AA0A6",
"X. c #9CA2A8",
"o. c #9EA4AA",
"O. c #A1A7AD",
"+. c #A2A8AE",
"@. c #A4AAB0",
"#. c #A5ABB1",
"$. c #A7AEB4",
"%. c #A8AFB5",
"&. c #A9B0B6",
"*. c #ABB2B8",
"=. c #ACB2B9",
"-. c #AEB4BB",
";. c #AFB5BC",
":. c #B0B6BD",
">. c #B2B8BF",
",. c #B2B9C0",
"<. c #B4BBC2",
"1. c #B5BCC3",
"2. c #B7BEC5",
"3. c #B8BFC6",
"4. c #BBC2C9",
"5. c #BCC3CA",
"6. c #BFC7CE",
"7. c #C3CBD2",
"8. c #C4CAD2",
"9. c #C5CDD4",
"0. c #C9D0D8",
"q. c #CBD2DA",
"w. c #CCD3DB",
"e. c #CED5DD",
"r. c #D3DBE3",
"t. c #D6DEE6",
"y. c #D8E0E8",
"u. c #DBE4EC",
"i. c #DEE7EF",
"p. c #E0E8F1",
"a. c #E3EBF4",
"s. c #E4ECF5",
"d. c #E5EDF6",
"f. c #E6EFF8",
"g. c #E7F0F9",
"h. c #E8F1FA",
"j. c #EAF3FC",
"k. c #EBF4FD",
"l. c #EDF6FF",
/* pixels */
":.e.e.e.e.e.e.e.e.e.e.e.e.e.e.e.e.e.e.e.e.e.e.e.e.e.e.e.e.e.e.e.e.e.e.e.e.e.e.e.e.e.e.e.e.e.e.e.e.e.e.e.e.e.e.e.e.e.e.e.e.e.e.:.",
"e.l.l.l.l.l.l.l.l.l.l.l.l.l.l.l.l.l.l.l.l.l.l.l.l.l.l.l.l.l.l.l.l.l.l.l.l.l.l.l.l.l.l.l.l.l.l.l.l.l.l.l.l.l.l.l.l.l.l.l.l.l.l.e.",
"e.l.l.l.l.l.l.l.l.l.l.l.l.l.l.l.l.l.l.l.l.l.d.t.h.l.l.l.l.l.l.l.l.l.l.l.l.l.l.l.l.l.l.l.l.l.l.l.l.l.l.l.l.l.l.l.l.l.l.l.l.l.l.e.",
"e.l.l.l.l.l.l.l.l.l.l.l.l.l.l.l.l.t.} M q O     . $ 6 b { u.l.l.l.l.l.l.l.l.l.l.l.l.l.l.l.l.l.l.l.l.l.l.l.l.l.l.l.l.l.l.l.l.l.e.",
"e.l.l.l.l.l.l.l.l.l.l.l.l.l.l.6.b .                         p <.l.l.l.l.l.l.l.l.l.l.l.l.l.l.l.l.l.l.l.l.l.l.l.l.l.l.l.l.l.l.l.e.",
"e.l.l.l.l.l.l.l.l.l.l.l.l.p.D                                   p 4.l.l.l.l.l.l.l.l.l.l.l.l.l.l.l.l.l.l.l.l.l.l.l.l.l.l.l.l.l.e.",
"e.l.l.l.l.l.l.l.l.l.l.l.7.<                                     . . Y l.l.l.l.l.l.l.l.l.l.l.l.l.l.l.l.d.l.l.l.l.l.l.l.l.l.l.l.e.",
"e.l.l.l.l.l.l.l.l.l.l.1.+                                             x p.r.=.&.&.&.y.l.l.l.l.&.c 6 +   @ 8 J e.l.l.l.l.l.l.l.e.",
"e.l.l.l.l.l.l.l.l.l.4.+                       O O .                     ( ]         $.l.l.4.6                   S d.l.l.l.l.l.e.",
"e.l.l.l.l.l.l.l.l.y.=                 s } 9.i.l.l.t.4.] e               ( `         $.l.$.O                       0 t.l.l.l.l.e.",
"e.l.l.l.l.l.l.l.l.i               B t.l.l.l.l.l.l.l.l.l.l.9.C           ( _         $.1.                            0 d.l.l.l.e.",
"e.l.l.l.l.l.l.l.}             O | l.l.l.l.l.l.l.l.l.l.l.l.l.l.:.=       ( _         +.4         t Z J M =             M l.l.l.e.",
"e.l.l.l.l.l.l.p.$           o 6.l.l.l.l.f.( C w = i G %.l.l.l.l.i.x     ! `         9       d q.l.l.l.l.h.| @           =.l.l.e.",
"e.l.l.l.l.l.l.Y             X.l.l.l.l.9.7 . .           C p.l.l.l.h.b . ( `               F l.l.l.l.l.l.l.l.w.*         8 k.l.e.",
"e.l.l.l.l.l.a.#           J l.l.l.l.3.X     e K ` S =     6 h.l.l.l.h.g ( ]             y h.l.l.l.l.l.l.l.l.l.>.          o.l.e.",
"e.l.l.l.l.l.{           $ p.l.l.l.l.w     G l.l.l.l.t.q     E l.l.l.l.d.4._             q.l.l.l.l.l.l.l.l.l.l.k.C         z l.e.",
"e.l.l.l.l.l.r           Y l.l.l.l. .    s l.l.l.l.l.l.t.O   @ t.l.l.l.l.l.`           B l.l.l.l.l.l.l.l.l.l.l.l.e.        X p.e.",
"e.l.l.l.l.t.          $ a.l.l.l.l.g     ,.l.l.l.l.l.l.l.S     ] l.l.l.l.l._           =.l.l.l.l.l.l.l.l.l.l.l.l.l.p         +.e.",
"e.l.l.l.l.]           C l.l.l.l.l.4   + l.l.l.l.l.l.l.l.%.    K l.l.l.l.l.`         @ h.l.l.l.l.l.l.l.l.l.l.l.l.l.Q         L e.",
"e.l.l.l.l.v           #.l.l.l.l.l.o   6 l.l.l.l.l.l.l.l.9.    b l.l.l.l.l.]         y l.l.l.l.l.l.l.l.l.l.l.l.l.l.8.        h e.",
"e.l.l.l.l.=         o d.l.l.l.l.y.    d l.l.l.l.l.l.l.l.i.    e l.l.l.l.l.]         C l.l.l.l.l.l.l.l.l.l.l.l.l.l.p.        = e.",
"e.l.l.l.t.          f l.l.l.l.l.h.    0 l.l.l.l.l.l.l.l.e.    k l.l.l.l.l.`         Y l.l.l.l.l.l.l.l.l.l.l.l.l.l.l.&       + e.",
"e.l.l.l.&.          G l.l.l.l.l.l.,   $ l.l.l.l.l.l.l.l.:.    F l.l.l.l.l.`         ] l.l.l.l.l.l.l.l.l.l.l.l.l.l.l.4         w.",
"e.l.l.l.^           ] l.l.l.l.l.l.p     w.l.l.l.l.l.l.l.U   . ( l.l.l.l.l._         X.l.l.l.l.l.l.l.l.l.l.l.l.l.l.l.q         6.",
"e.l.l.l.F           <.l.l.l.l.l.l.Y     D l.l.l.l.l.l.d.&     w.l.l.l.l.l.]         O.l.l.l.l.l.l.l.l.l.l.l.l.l.l.l.y         3.",
"e.l.l.l.x           y.l.l.l.l.l.l.d.=   o $.l.l.l.l.h.Z     C l.l.l.l.l.l.`         | l.l.l.l.l.l.l.l.l.l.l.l.l.l.l.9         9.",
"e.l.l.l.t           l.l.l.l.l.l.l.l.}       J =.q.| p     + y.l.l.l.l.l.l.`         _ l.l.l.l.l.l.l.l.l.l.l.l.l.l.l.3         w.",
"e.l.l.l.6         @ l.l.l.l.l.l.l.l.l.} O               8 9.l.l.l.l.l.l.l._         U l.l.l.l.l.l.l.l.l.l.l.l.l.l.l.@ .     O w.",
"e.l.l.l.<         & l.l.l.l.l.l.l.l.l.l.e.V 7 X   O e L d.l.l.l.l.l.l.l.l.`         M l.l.l.l.l.l.l.l.l.l.l.l.l.l.t.        3 e.",
"e.l.l.l.=         1 l.l.l.l.l.l.l.l.l.l.l.l.l.g.t.j.l.l.l.l.l.l.l.l.l.l.l.`         q l.l.l.l.l.l.l.l.l.l.l.l.l.l.<.        b e.",
"e.l.l.l.&         7 l.l.l.l.l.l.l.l.l.l.l.l.l.l.l.l.l.l.l.l.l.l.l.l.l.l.l.`         . p.l.l.l.l.l.l.l.l.l.l.l.l.l.U       . U e.",
"e.l.l.l.&         5 l.l.l.l.l.l.l.l.l.l.q.I v 3 3 b I w.l.l.l.l.l.l.l.l.l._         . X.l.l.l.l.l.l.l.l.l.l.l.l.l.q       . =.e.",
"e.l.l.l.-         > l.l.l.l.l.l.l.l.l.] O             O | l.l.l.l.l.l.l.l.]           p l.l.l.l.l.l.l.l.l.l.l.l.5.        # g.e.",
"e.l.l.l.<         & l.l.l.l.l.l.l.l.J     X b Q E v       L l.l.l.l.l.l.l.`             4.l.l.l.l.l.l.l.l.l.l.l.h         Z l.e.",
"e.l.l.l.8         X l.l.l.l.l.l.l.9.    @ *.l.l.l.l.%.O   X e.l.l.l.l.l.l.`             2 p.l.l.l.l.l.l.l.l.l.{           1.l.e.",
"e.l.l.l.p           k.l.l.l.l.l.l.h     | l.l.l.l.l.l._     c l.l.l.l.l.l._               a p.l.l.l.l.l.l.l.*.X         d l.l.e.",
"e.l.l.l.m           e.l.l.l.l.l.i.    : h.l.l.l.l.l.l.d.&     d.l.l.l.l.l.]         l       2 ..h.l.l.l.e.H             7.l.l.e.",
"e.l.l.l.J           =.l.l.l.l.l.8.    A l.l.l.l.l.l.l.l.B     7.l.l.l.l.l.`         &.p         + 8 y >               I l.l.l.e.",
"e.l.l.l.'           ^ l.l.l.l.l.o.    Y l.l.l.l.l.l.l.l.K     #.l.l.l.l.l.`         &.e.$                           M l.l.l.l.e.",
"e.l.l.l.>.          D l.l.l.l.l.!     { l.l.l.l.l.l.l.l.(     ~ l.l.l.l.l._         &.l.q.>                       V f.l.l.l.l.e.",
"e.l.l.l.p.          q l.l.l.l.l. .    R l.l.l.l.l.l.l.l.U      .l.l.l.l.l.`         $.l.l.t.m                 - [ l.l.l.l.l.l.e.",
"e.l.l.l.l.7           y.l.l.l.l.2.    F l.l.l.l.l.l.l.l.Z     8.l.l.l.l.l.`         $.l.l.l.l.y.T B y 5 p Z +.h.l.l.l.l.l.l.l.e.",
"e.l.l.l.l.D           ] l.l.l.l.t.    w l.l.l.l.l.l.l.l.8     i.l.l.l.l.l.`         $.l.l.l.l.l.l.2.:.:.;.>.k.l.l._ v r y g 5.e.",
"e.l.l.l.l.+.          h l.l.l.l.l.7     2.l.l.l.l.l.l.%.    q l.l.l.l.l.l.`         &.l.l.l.l.l.l.y         q.l.j.&       $ d.e.",
"e.l.l.l.l.d.X           r.l.l.l.l.=.    8 t.l.l.l.l.e.3     ,.l.l.l.l.l.l.`         &.l.l.l.l.l.l.P         | l.>.        F l.e.",
"e.l.l.l.l.l.v           Z l.l.l.l.l.p     : _ 6.4.W &     x l.l.l.l.l.l.l.`         $.l.l.l.l.l.l.>.        ! l.H         7.l.e.",
"e.l.l.l.l.l.*.X         X e.l.l.l.l.p.C                 Z a.l.l.l.l.l.q.o.`         $.l.l.l.l.l.l.d.        ! k.<       e l.l.e.",
"e.l.l.l.l.l.l.6           g k.l.l.l.l.l.o.g =     ; g +.l.l.l.l.l.l.r.= ( `         $.l.l.l.l.l.l.l.y       ( 7.        { l.l.e.",
"e.l.l.l.l.l.l...            H h.l.l.l.l.l.l.l.l.l.l.l.l.l.l.l.l.k.t.>   ( `         %.l.l.l.l.l.l.l.P       ! I       @ d.l.l.e.",
"e.l.l.l.l.l.l.j.7             ( l.l.l.l.l.l.l.l.l.l.l.l.l.l.l.l.=.=     ( _         %.l.l.l.l.l.l.l.*.      Z 0       D l.l.l.e.",
"e.l.l.l.l.l.l.l.4.              M p.l.l.l.l.l.l.l.l.l.l.l.l.d.G         ~ `         %.l.l.l.l.l.l.l.f.X     =         7.l.l.l.e.",
"e.l.l.l.l.l.l.l.k.H               3 { p.l.l.l.l.l.l.l.l.t.E 1           ( ]         $.l.l.l.l.l.l.l.l.p             w l.l.l.l.e.",
"e.l.l.l.l.l.l.l.l.h.y                 O B E ..,.>.] K k X               ( `         $.l.l.l.l.l.l.l.l.I             [ l.l.l.l.e.",
"e.l.l.l.l.l.l.l.l.l.u.7                                                 +.*.b n v b 6.l.l.l.l.l.l.l.l.,.          @ d.l.l.l.l.e.",
"e.l.l.l.l.l.l.l.l.l.l.y.8                                           + O.l.l.l.l.l.l.l.l.l.l.l.l.l.l.l.h.X         D l.l.l.l.l.e.",
"e.l.l.l.l.l.l.l.l.l.l.l.d.N                                       7 q.l.l.l.l.l.l.l.l.l.l.l.l.l.l.l.l.l.i         7.l.l.l.l.l.e.",
"e.l.l.l.l.l.l.l.l.l.l.l.l.l.$.-                               > ` h.l.l.l.l.l.l.l.l.l.l.l.l.l.l.l.l.l.d.@       e l.l.l.l.l.l.e.",
"e.l.l.l.l.l.l.l.l.l.l.l.l.l.l.g.} e                       y ( d.l.l.l.l.l.l.l.l.l.l.l.l.l.l.l.l.l.l.l.!         } l.l.l.l.l.l.e.",
"e.l.l.l.l.l.j.4.! Q _ ` | X.$.&.:.3.*.Y A d y w s C K ..u.l.l.l.l.l.l.l.l.l.l.l.l.l.l.l.l.l.l.l.l.l.&.X       & d.l.l.l.l.l.l.e.",
"e.l.l.l.l.1.1                       .               X @ $ = 1 4 9 e y d k b V A F G K L L I L J Z b +         O.l.l.l.l.l.l.l.e.",
"e.l.l.l.T                                                                                                   k l.l.l.l.l.l.l.l.e.",
"e.l.l.7.                                                                                                  y y.l.l.l.l.l.l.l.l.e.",
"e.l.l.6.e $ # @ @ @ # @ # @ @ @ $ @ $ @ @ @ $ @ @ @ @ @ # @ # @ @ @ # @ # @ @ @ @ # $ $ $ & = > < 1 3 p { l.l.l.l.l.l.l.l.l.l.e.",
"*.e.e.e.e.e.e.e.e.e.e.e.e.e.e.e.e.e.e.e.e.e.e.e.e.e.e.e.e.e.e.e.e.e.e.e.e.e.e.e.e.e.e.e.e.e.e.e.e.e.e.e.e.e.e.e.e.e.e.e.e.e.e.:."
};
